<?xml version="1.0" encoding="UTF-8"?>
<!DOCTYPE svg PUBLIC "-//W3C//DTD SVG 1.1//EN" "http://www.w3.org/Graphics/SVG/1.1/DTD/svg11.dtd">
<svg xmlns="http://www.w3.org/2000/svg" version="1.1" width="1024px" height="1024px" style="shape-rendering:geometricPrecision; text-rendering:geometricPrecision; image-rendering:optimizeQuality; fill-rule:evenodd; clip-rule:evenodd" xmlns:xlink="http://www.w3.org/1999/xlink">
<g><path style="opacity:1" fill="#fefefe" d="M -0.5,-0.5 C 340.833,-0.5 682.167,-0.5 1023.5,-0.5C 1023.5,340.833 1023.5,682.167 1023.5,1023.5C 682.167,1023.5 340.833,1023.5 -0.5,1023.5C -0.5,682.167 -0.5,340.833 -0.5,-0.5 Z"/></g>
<g><path style="opacity:1" fill="#010100" d="M 504.5,56.5 C 513.255,55.648 521.589,57.148 529.5,61C 625.997,95.6096 722.331,130.61 818.5,166C 824.56,170.608 826.06,176.441 823,183.5C 820.76,186.402 817.927,188.569 814.5,190C 768.692,207.325 722.692,224.159 676.5,240.5C 675.334,254.488 675.167,268.488 676,282.5C 704.415,306.311 721.749,336.645 728,373.5C 732.695,413.025 724.029,449.358 702,482.5C 695.909,491.013 689.576,499.346 683,507.5C 675.646,520.223 670.646,533.89 668,548.5C 661.867,580.335 655.033,612.001 647.5,643.5C 648,643.833 648.5,644.167 649,644.5C 675.108,635.466 701.941,631.633 729.5,633C 805.726,643.226 849.56,686.393 861,762.5C 862.62,831.177 832.12,879.343 769.5,907C 750.717,913.757 731.384,918.09 711.5,920C 690.513,921.844 669.513,923.51 648.5,925C 629.42,927.269 611.42,932.936 594.5,942C 582.146,950.363 569.812,958.697 557.5,967C 548.039,968.696 542.539,964.863 541,955.5C 540.448,929.488 548.448,906.488 565,886.5C 585.422,863.527 610.589,848.027 640.5,840C 658.09,836.269 675.424,831.603 692.5,826C 706.725,821.15 718.559,812.983 728,801.5C 733.852,791.928 734.852,781.928 731,771.5C 728.635,768.131 725.468,765.964 721.5,765C 713.792,764.294 706.125,764.628 698.5,766C 676.952,772.738 655.285,779.072 633.5,785C 621.269,787.526 608.935,789.359 596.5,790.5C 563.462,850.04 516.129,894.206 454.5,923C 387.728,950.319 322.394,947.319 258.5,914C 194.89,875.949 166.39,819.783 173,745.5C 184.977,679.53 221.143,632.03 281.5,603C 318.191,586.928 356.191,582.928 395.5,591C 423.21,596.737 449.877,605.57 475.5,617.5C 477.251,597.878 477.918,578.212 477.5,558.5C 428.792,551.885 384.792,534.051 345.5,505C 307.25,471.636 290.083,429.469 294,378.5C 299.229,339.355 316.895,307.355 347,282.5C 347.833,268.488 347.666,254.488 346.5,240.5C 319.675,230.226 292.675,220.559 265.5,211.5C 265.334,216.511 265.501,221.511 266,226.5C 270.889,229.059 273.889,233.059 275,238.5C 275.667,243.167 275.667,247.833 275,252.5C 273.266,255.298 272.099,258.298 271.5,261.5C 275.667,284.502 279.834,307.502 284,330.5C 286.6,338.738 284.1,344.571 276.5,348C 260.1,348.955 243.766,348.622 227.5,347C 222.741,342.509 221.241,337.009 223,330.5C 226.974,307.464 231.141,284.464 235.5,261.5C 234.901,258.298 233.734,255.298 232,252.5C 229.271,241.681 232.271,233.014 241,226.5C 241.5,218.173 241.666,209.84 241.5,201.5C 229.164,197.109 216.83,192.609 204.5,188C 196.655,180.639 196.655,173.306 204.5,166C 304.483,129.175 404.483,92.675 504.5,56.5 Z"/></g>
<g><path style="opacity:1" fill="#303030" d="M 509.5,81.5 C 597.989,112.83 686.322,144.663 774.5,177C 741.503,188.943 708.503,200.776 675.5,212.5C 676.606,204.988 674.606,198.488 669.5,193C 577.096,154.972 483.096,150.639 387.5,180C 375.932,183.744 364.599,188.078 353.5,193C 348.102,198.358 346.102,204.858 347.5,212.5C 314.771,200.978 282.105,189.145 249.5,177C 249.833,176.667 250.167,176.333 250.5,176C 337.123,144.962 423.457,113.462 509.5,81.5 Z"/></g>
<g><path style="opacity:1" fill="#303030" d="M 489.5,187.5 C 544.404,185.318 597.737,193.318 649.5,211.5C 649.5,229.833 649.5,248.167 649.5,266.5C 628.418,258.824 606.751,256.657 584.5,260C 570.058,262.488 555.725,265.488 541.5,269C 525.264,272.453 508.931,273.119 492.5,271C 471.28,266.361 449.947,262.361 428.5,259C 409.536,256.939 391.202,259.439 373.5,266.5C 372.167,248.5 372.167,230.5 373.5,212.5C 411.023,198.264 449.69,189.931 489.5,187.5 Z"/></g>
<g><path style="opacity:1" fill="#fe871b" d="M 629.5,618.5 C 623.712,642.753 617.379,667.587 610.5,693C 610.57,693.765 610.903,694.265 611.5,694.5C 592.545,763.295 555.878,820.462 501.5,866C 469.199,891.781 432.533,908.115 391.5,915C 376.861,916.47 362.195,916.803 347.5,916C 338.891,915.275 330.558,913.775 322.5,911.5C 309.114,907.765 295.447,902.932 281.5,897C 271.117,891.775 261.117,885.941 251.5,879.5C 219.508,855.211 201.175,822.878 196.5,782.5C 195.138,754.385 200.805,727.718 213.5,702.5C 213.376,701.893 213.043,701.56 212.5,701.5C 233.587,660.258 266.254,632.425 310.5,618C 339.507,609.953 368.507,609.453 397.5,616.5C 421.389,623.309 445.389,631.809 469.5,642C 469.855,644.932 470.188,647.766 470.5,650.5C 464.39,673.374 455.056,694.707 442.5,714.5C 441.85,714.804 441.183,715.137 440.5,715.5C 418.522,704.785 395.356,698.451 371,696.5C 366.41,696.466 362.577,696.8 359.5,697.5C 343.649,699.843 330.149,706.843 319,718.5C 305.002,737.852 305.002,757.185 319,776.5C 334.592,790.277 352.759,795.443 373.5,792C 395.909,788.294 415.576,778.961 432.5,764C 460.231,736.729 479.397,704.229 490,666.5C 493.098,656.342 495.432,646.008 497,635.5C 502.508,646.341 508.842,656.674 516,666.5C 519.435,670.445 523.268,673.778 527.5,676.5C 532.641,678.652 536.808,677.318 540,672.5C 543.391,666.269 545.225,659.602 545.5,652.5C 556.522,655.069 567.522,655.069 578.5,652.5C 579.035,650.729 579.869,650.396 581,651.5C 582.119,650.448 582.619,649.281 582.5,648C 581.869,644.471 581.036,640.971 580,637.5C 579.601,637.728 579.435,638.062 579.5,638.5C 560.357,619.883 548.857,597.217 545,570.5C 544.214,562.63 544.381,554.797 545.5,547C 590.989,535.193 626.823,509.693 653,470.5C 655.527,466.779 657.527,462.779 659,458.5C 660.593,452.002 658.093,448.669 651.5,448.5C 649.366,448.515 647.366,449.015 645.5,450C 629.334,471.503 610,489.503 587.5,504C 525.33,534.197 466.664,528.53 411.5,487C 399.502,476.814 389.002,465.314 380,452.5C 374.871,447.668 369.538,447.335 364,451.5C 363.262,455.261 363.595,458.928 365,462.5C 368.686,469.886 372.853,476.886 377.5,483.5C 383.586,492.089 390.586,499.923 398.5,507C 390.647,503.74 382.98,499.907 375.5,495.5C 341.32,474.516 322.32,443.849 318.5,403.5C 318.652,363.688 333.319,330.355 362.5,303.5C 375.791,291.67 391.457,285.17 409.5,284C 417.197,283.43 424.864,283.764 432.5,285C 450.196,288.507 467.862,292.174 485.5,296C 500.451,298.759 515.451,299.092 530.5,297C 548.327,294.101 565.994,290.435 583.5,286C 628.847,277.763 663.347,293.263 687,332.5C 711.746,379.588 709.746,425.588 681,470.5C 674.333,479.167 667.667,487.833 661,496.5C 652.234,513.557 646.234,531.557 643,550.5C 639.02,573.402 634.52,596.069 629.5,618.5 Z"/></g>
<g><path style="opacity:1" fill="#f2951e" d="M 362.5,303.5 C 333.319,330.355 318.652,363.688 318.5,403.5C 317.424,363.876 331.424,330.71 360.5,304C 361.094,303.536 361.761,303.369 362.5,303.5 Z"/></g>
<g><path style="opacity:1" fill="#020000" d="M 442.5,367.5 C 442.797,376.219 442.297,384.886 441,393.5C 438.933,403.567 432.933,409.567 423,411.5C 417.012,411.172 412.346,408.505 409,403.5C 406.429,398.285 404.596,392.952 403.5,387.5C 403.334,380.159 403.5,372.826 404,365.5C 404.931,358.137 408.098,351.971 413.5,347C 425.338,341.339 433.838,344.506 439,356.5C 440.034,360.333 441.2,363.999 442.5,367.5 Z"/></g>
<g><path style="opacity:1" fill="#020000" d="M 594.5,344.5 C 602.542,342.803 609.042,345.136 614,351.5C 621.513,366.706 622.513,382.373 617,398.5C 612.483,409.176 604.649,413.009 593.5,410C 585.237,403.639 581.071,395.139 581,384.5C 579.529,372.857 581.529,361.857 587,351.5C 589.396,348.933 591.896,346.6 594.5,344.5 Z"/></g>
<g><path style="opacity:1" fill="#f5931e" d="M 442.5,367.5 C 445.696,379.452 444.53,391.119 439,402.5C 432.828,412.74 424.328,415.24 413.5,410C 406.548,403.935 403.215,396.435 403.5,387.5C 404.596,392.952 406.429,398.285 409,403.5C 412.346,408.505 417.012,411.172 423,411.5C 432.933,409.567 438.933,403.567 441,393.5C 442.297,384.886 442.797,376.219 442.5,367.5 Z"/></g>
<g><path style="opacity:1" fill="#050100" d="M 544.5,442.5 C 556.909,443.045 561.075,449.045 557,460.5C 550.869,467.57 544.202,468.236 537,462.5C 533.662,453.527 536.162,446.86 544.5,442.5 Z"/></g>
<g><path style="opacity:1" fill="#f5951e" d="M 465.5,447.5 C 466.359,444.548 468.359,442.715 471.5,442C 482.868,440.198 489.201,445.032 490.5,456.5C 486.553,467.748 479.219,470.582 468.5,465C 462.234,459.798 461.234,453.964 465.5,447.5 Z"/></g>
<g><path style="opacity:1" fill="#040100" d="M 465.5,447.5 C 470.322,442.473 475.989,441.306 482.5,444C 489.523,450.162 490.189,456.829 484.5,464C 476.364,468.067 469.864,466.234 465,458.5C 464.322,454.779 464.489,451.112 465.5,447.5 Z"/></g>
<g><path style="opacity:1" fill="#f2951f" d="M 377.5,483.5 C 387.376,494.876 398.376,505.042 410.5,514C 397.716,509.942 386.05,503.775 375.5,495.5C 382.98,499.907 390.647,503.74 398.5,507C 390.586,499.923 383.586,492.089 377.5,483.5 Z"/></g>
<g><path style="opacity:1" fill="#fc891b" d="M 500.5,548.5 C 508.167,548.5 515.833,548.5 523.5,548.5C 522.891,573.288 527.724,596.955 538,619.5C 539.796,622.927 541.963,626.094 544.5,629C 532.979,627.54 526.479,632.706 525,644.5C 511.757,623.437 504.09,600.437 502,575.5C 501.12,566.518 500.62,557.518 500.5,548.5 Z"/></g>
<g><path style="opacity:1" fill="#f1931e" d="M 629.5,618.5 C 625.072,644.211 619.072,669.544 611.5,694.5C 610.903,694.265 610.57,693.765 610.5,693C 617.379,667.587 623.712,642.753 629.5,618.5 Z"/></g>
<g><path style="opacity:1" fill="#f3951f" d="M 397.5,616.5 C 423.487,622.384 448.487,631.051 472.5,642.5C 471.518,645.096 470.851,647.762 470.5,650.5C 470.188,647.766 469.855,644.932 469.5,642C 445.389,631.809 421.389,623.309 397.5,616.5 Z"/></g>
<g><path style="opacity:1" fill="#f7961e" d="M 527.5,676.5 C 535.445,676.397 540.279,672.397 542,664.5C 543.286,659.904 544.119,655.237 544.5,650.5C 554.354,653.741 564.354,654.241 574.5,652C 580.176,649.152 581.843,644.652 579.5,638.5C 579.435,638.062 579.601,637.728 580,637.5C 581.036,640.971 581.869,644.471 582.5,648C 582.619,649.281 582.119,650.448 581,651.5C 579.869,650.396 579.035,650.729 578.5,652.5C 567.522,655.069 556.522,655.069 545.5,652.5C 545.225,659.602 543.391,666.269 540,672.5C 536.808,677.318 532.641,678.652 527.5,676.5 Z"/></g>
<g><path style="opacity:1" fill="#fe871b" d="M 814.5,706.5 C 832.697,734.998 838.864,765.998 833,799.5C 832.268,802.529 831.435,805.529 830.5,808.5C 830.543,809.416 830.876,810.083 831.5,810.5C 816.411,851.418 787.744,877.584 745.5,889C 738.238,890.982 730.905,892.649 723.5,894C 698.926,897.279 674.259,899.612 649.5,901C 624.961,903.459 601.961,910.625 580.5,922.5C 577.071,923.381 574.071,925.048 571.5,927.5C 571.167,927 570.833,926.5 570.5,926C 576.412,912.077 585.078,900.077 596.5,890C 600.751,887.055 604.751,883.888 608.5,880.5C 615.497,875.331 623.163,871.164 631.5,868C 649.99,862.368 668.657,857.368 687.5,853C 710.069,846.974 729.236,835.474 745,818.5C 758.656,799.595 760.656,779.595 751,758.5C 744.582,749.039 735.749,743.206 724.5,741C 714.46,740.205 704.46,740.538 694.5,742C 677.317,746.728 660.317,752.061 643.5,758C 633.636,760.799 623.636,762.966 613.5,764.5C 612.5,764.167 611.5,763.833 610.5,763.5C 623.859,733.947 634.526,703.447 642.5,672C 669.497,661.249 697.497,656.249 726.5,657C 758.885,659.61 786.052,672.777 808,696.5C 810.81,699.464 812.976,702.798 814.5,706.5 Z"/></g>
<g><path style="opacity:1" fill="#f1941f" d="M 442.5,714.5 C 441.796,716.344 440.463,716.844 438.5,716C 413.593,703.69 387.26,697.523 359.5,697.5C 362.577,696.8 366.41,696.466 371,696.5C 395.356,698.451 418.522,704.785 440.5,715.5C 441.183,715.137 441.85,714.804 442.5,714.5 Z"/></g>
<g><path style="opacity:1" fill="#fdfdfd" d="M 360.5,721.5 C 383.486,721.219 405.153,726.386 425.5,737C 405.945,760.271 380.945,770.605 350.5,768C 333.337,763.174 328.503,752.674 336,736.5C 342.091,728.041 350.258,723.041 360.5,721.5 Z"/></g>
<g><path style="opacity:1" fill="#ed901d" d="M 212.5,701.5 C 213.043,701.56 213.376,701.893 213.5,702.5C 200.805,727.718 195.138,754.385 196.5,782.5C 193.9,753.832 199.234,726.832 212.5,701.5 Z"/></g>
<g><path style="opacity:1" fill="#f0951f" d="M 814.5,706.5 C 826.316,722.492 833.483,740.492 836,760.5C 837.634,777.492 836.134,794.158 831.5,810.5C 830.876,810.083 830.543,809.416 830.5,808.5C 831.435,805.529 832.268,802.529 833,799.5C 838.864,765.998 832.697,734.998 814.5,706.5 Z"/></g>
<g><path style="opacity:1" fill="#f0941f" d="M 251.5,879.5 C 261.117,885.941 271.117,891.775 281.5,897C 295.447,902.932 309.114,907.765 322.5,911.5C 300.228,907.355 279.561,899.188 260.5,887C 257.31,884.636 254.31,882.136 251.5,879.5 Z"/></g>
<g><path style="opacity:1" fill="#f4941f" d="M 608.5,880.5 C 604.751,883.888 600.751,887.055 596.5,890C 585.078,900.077 576.412,912.077 570.5,926C 570.833,926.5 571.167,927 571.5,927.5C 574.071,925.048 577.071,923.381 580.5,922.5C 576.152,926.615 571.485,929.615 566.5,931.5C 574.144,909.181 588.144,892.181 608.5,880.5 Z"/></g>
</svg>
